<?xml version="1.0" standalone="no"?>
<svg
  width="600"
  height="600"
  viewBox="0 0 600 600"
  xmlns="http://www.w3.org/2000/svg"
>
  <g transform="translate(300,300)">
    <path d="M110,-147.1C148.7,-123.3,190.4,-99.3,218.8,-59.8C247.3,-20.2,262.5,35,242.7,73.6C223,112.2,168.2,134.2,121.9,158.5C75.6,182.8,37.8,209.4,-1.5,211.4C-40.8,213.4,-81.5,190.9,-123.4,165.1C-165.2,139.4,-208.1,110.5,-227.2,69.6C-246.3,28.7,-241.6,-24.1,-225.8,-73.6C-210,-123,-183.2,-169.1,-143.7,-192.6C-104.2,-216.1,-52.1,-217.1,-8.2,-205.7C35.7,-194.4,71.3,-170.8,110,-147.1Z" fill="#86A985" />
  </g>
</svg>
