<?xml version="1.0"?>
<svg xmlns="http://www.w3.org/2000/svg" height="512px" viewBox="0 0 512 512" width="512px"><g><path d="m27.28 327.89a240.051 240.051 0 0 1 384.52-254.741 8 8 0 0 0 10.37-12.179 254.989 254.989 0 0 0 -165.82-60.97h-.02a257.9 257.9 0 0 0 -51.59 5.2 254.816 254.816 0 0 0 -91.54 38.52 257.07 257.07 0 0 0 -69.14 69.15 256.511 256.511 0 0 0 -32.04 219.81 7.953 7.953 0 0 0 7.629 5.6 8.1 8.1 0 0 0 2.391-.36 8.011 8.011 0 0 0 5.24-10.03z" data-original="#000000" class="active-path" data-old_color="#000000" fill="#FCF7F8"/><path d="m38.439 356.75-.009-.01a8 8 0 1 0 -14.51 6.73l.09.2v-.01a8.039 8.039 0 0 0 7.17 4.449 7.878 7.878 0 0 0 3.36-.75 8.017 8.017 0 0 0 3.899-10.609z" data-original="#000000" class="active-path" data-old_color="#000000" fill="#FCF7F8"/><path d="m500.229 178.02a254.361 254.361 0 0 0 -33.79-68.31 8 8 0 0 0 -6.559-3.42 8 8 0 0 0 -6.561 12.569 240.322 240.322 0 0 1 -101.319 357.369v-12.228a96.045 96.045 0 0 0 -36.142-75.045 8 8 0 0 0 -9.976 12.51 78.229 78.229 0 0 1 6.682 5.974 79.432 79.432 0 0 1 23.436 56.561v16a7.973 7.973 0 0 0 .361 2.382 237.574 237.574 0 0 1 -24.361 7.145v-41.527a8 8 0 0 0 -16 0v44.741a243.146 243.146 0 0 1 -80-.108v-44.633a8 8 0 0 0 -16 0v41.38a238.691 238.691 0 0 1 -24.308-7.2 7.979 7.979 0 0 0 .308-2.18v-16a79.641 79.641 0 0 1 30.121-62.538 8 8 0 1 0 -9.982-12.5 95.56 95.56 0 0 0 -36.139 75.038v11.977a239.713 239.713 0 0 1 -106.79-92.077 8 8 0 0 0 -13.53 8.54 257.127 257.127 0 0 0 91.11 86.71 254.791 254.791 0 0 0 125.54 32.85 256.241 256.241 0 0 0 212.279-112.87 254.635 254.635 0 0 0 38.521-91.54 257.782 257.782 0 0 0 -6.9-129.57z" data-original="#000000" class="active-path" data-old_color="#000000" fill="#FCF7F8"/><path d="m439.95 97.3a8 8 0 1 0 -5.381-13.92 8 8 0 0 0 -.539 11.3 8.027 8.027 0 0 0 5.92 2.62z" data-original="#000000" class="active-path" data-old_color="#000000" fill="#FCF7F8"/><path d="m168 240a24 24 0 1 0 24 24 24.028 24.028 0 0 0 -24-24zm0 32a8 8 0 1 1 8-8 8.009 8.009 0 0 1 -8 8z" data-original="#000000" class="active-path" data-old_color="#000000" fill="#FCF7F8"/><path d="m344 240a24 24 0 1 0 24 24 24.028 24.028 0 0 0 -24-24zm0 32a8 8 0 1 1 8-8 8.009 8.009 0 0 1 -8 8z" data-original="#000000" class="active-path" data-old_color="#000000" fill="#FCF7F8"/><path d="m275.562 290.077a35.176 35.176 0 0 1 -39.125 0 8 8 0 0 0 -8.875 13.313 51.134 51.134 0 0 0 56.875 0 8 8 0 0 0 -8.875-13.313z" data-original="#000000" class="active-path" data-old_color="#000000" fill="#FCF7F8"/><path d="m228.319 187.56.031.009a8 8 0 0 0 6.18-14.759 8 8 0 0 0 -6.211 14.75z" data-original="#000000" class="active-path" data-old_color="#000000" fill="#FCF7F8"/><path d="m400 416a8 8 0 0 0 8-8v-104a47.961 47.961 0 0 0 37.865-77.447 7.953 7.953 0 0 0 .345-3.685 176.071 176.071 0 0 0 -116.117-141.013 79.985 79.985 0 0 0 -148.186 0 176.071 176.071 0 0 0 -116.117 141.013 7.953 7.953 0 0 0 .345 3.685 47.961 47.961 0 0 0 37.865 77.447v104a8 8 0 0 0 16 0v-64.257a67.863 67.863 0 0 0 52 24.257h52v16a32 32 0 0 0 64 0v-16h52a67.863 67.863 0 0 0 52-24.257v64.257a8 8 0 0 0 8 8zm40-160a32.036 32.036 0 0 1 -32 32v-64a32.036 32.036 0 0 1 32 32zm-336 32a32 32 0 0 1 0-64zm168 96a16 16 0 0 1 -32 0v-16h32zm68-32h-168a52.059 52.059 0 0 1 -52-52v-84a55.4 55.4 0 0 1 8.74-30.561c8.3-13.04 21.25-21.5 30.659-26.309a108.458 108.458 0 0 1 13.341-5.74c.25-.08.489-.161.72-.241 4.46 4.551 12.47 11.621 25.29 19.451a8 8 0 1 0 8.35-13.65 124.663 124.663 0 0 1 -19.55-14.43c-1.981-1.82-3.34-3.26-4.14-4.15-.32-.35-.61-.69-.87-1-.07-.09-.12-.15-.15-.181l-3.18-4.239-5.15 1.29c-.03.01-.081.02-.161.04a118.1 118.1 0 0 0 -34.429 16.13 86.45 86.45 0 0 0 -24.21 24.4 70.58 70.58 0 0 0 -8.17 17.71 71.6 71.6 0 0 0 -2.212 9.849 7.958 7.958 0 0 0 -.878 3.631 47.7 47.7 0 0 0 -20 4.382c16.36-71.748 81.254-124.382 156-124.382a8 8 0 0 0 0-16 176.131 176.131 0 0 0 -36.834 3.9 63.973 63.973 0 0 1 105.668 0 176.131 176.131 0 0 0 -36.834-3.9 8 8 0 0 0 0 16c74.746 0 139.64 52.634 156 124.382a47.7 47.7 0 0 0 -20-4.382 8 8 0 0 0 -6.3-7.814l-.056-.014c-.182-.038-.369-.063-.556-.089-.082-.011-.163-.028-.246-.037-.14-.015-.283-.017-.425-.025-.124-.006-.246-.02-.371-.021h-.046c-52.1 0-97.91-5.681-136.15-16.88a7.877 7.877 0 0 0 -2.25-.33 8.045 8.045 0 0 0 -7.68 5.76 8 8 0 0 0 5.43 9.929c37.716 11.04 82.312 16.906 132.65 17.466v84.055a52.059 52.059 0 0 1 -52 52z" data-original="#000000" class="active-path" data-old_color="#000000" fill="#FCF7F8"/><path d="m192 208h-14.111a84.208 84.208 0 0 0 -37.466 8.845 8 8 0 1 0 7.154 14.31 68.145 68.145 0 0 1 30.312-7.155h14.111a8 8 0 0 0 0-16z" data-original="#000000" class="active-path" data-old_color="#000000" fill="#FCF7F8"/></g> </svg>
