<svg width="512" height="512" xmlns="http://www.w3.org/2000/svg">

 <g>
  <title>background</title>
  <rect fill="none" id="canvas_background" height="514" width="514" y="-1" x="-1"/>
 </g>
 <g>
  <title>Layer 1</title>
  <path id="svg_7" d="m261,481.5l-191,-173.5l4,-29l14,-12l57,11l47,32l4,-260l19,-36l27,6l10,196l17,-96l46,7l9,98l-5,-75l36,-8l29,24l-6,77l15,-73l29,-13l27,43l-2,90l6,99l-21,59l-57,48l-69,8l-72,-31l-90,-98l117,106.5z" fill-opacity="null" stroke-opacity="null" stroke-width="null" stroke="null" fill="#DC9D9C"/>
  <g id="svg_1">
   <g id="svg_2">
    <g id="svg_3">
     <path id="svg_4" fill="#FCF7F8" d="m416,149.333c-8.768,0 -16.939,2.667 -23.723,7.211c-5.845,-16.597 -21.696,-28.544 -40.277,-28.544c-8.768,0 -16.939,2.667 -23.723,7.211c-5.845,-16.597 -21.696,-28.544 -40.277,-28.544c-7.765,0 -15.061,2.091 -21.333,5.739l0,-69.739c0,-23.531 -19.136,-42.667 -42.667,-42.667s-42.667,19.136 -42.667,42.667l0,249.408l-58.645,-29.333c-8.832,-4.417 -18.731,-6.742 -28.608,-6.742c-22.485,0 -40.747,18.283 -40.747,40.875c0,10.901 4.245,21.12 11.947,28.821l137.941,137.941c31.168,31.19 72.662,48.363 116.779,48.363c76.459,0 138.667,-62.208 138.667,-138.667l0,-181.333c0,-23.531 -19.136,-42.667 -42.667,-42.667zm21.333,224c0,64.704 -52.651,117.333 -117.355,117.333c-38.421,0 -74.517,-14.955 -101.653,-42.133l-137.962,-137.941c-3.669,-3.648 -5.696,-8.533 -5.696,-13.845c0,-10.709 8.704,-19.413 19.413,-19.413c6.592,0 13.163,1.557 19.072,4.501l74.091,37.035c3.307,1.643 7.253,1.472 10.368,-0.469c3.136,-1.941 5.056,-5.376 5.056,-9.067l0,-266.667c0,-11.755 9.557,-21.333 21.333,-21.333s21.333,9.579 21.333,21.333l0,202.667c0,5.888 4.779,10.667 10.667,10.667c5.888,0 10.667,-4.779 10.667,-10.667l0,-96c0,-11.755 9.557,-21.333 21.333,-21.333s21.333,9.579 21.333,21.333l0,96c0,5.888 4.779,10.667 10.667,10.667s10.667,-4.779 10.667,-10.667l0,-74.667c0,-11.755 9.557,-21.333 21.333,-21.333s21.333,9.579 21.333,21.333l0,74.667c0,5.888 4.779,10.667 10.667,10.667c5.888,0 10.667,-4.779 10.667,-10.667l0,-53.334c0,-11.755 9.557,-21.333 21.333,-21.333s21.333,9.579 21.333,21.333l0,181.333z"/>
    </g>
   </g>
  </g>
 </g>
</svg>
