<svg width="781" height="486" xmlns="http://www.w3.org/2000/svg">

 <g>
  <title>background</title>
  <rect fill="none" id="canvas_background" height="488" width="783" y="-1" x="-1"/>
 </g>
 <g>
  <title>Layer 1</title>
  <path id="svg_1" fill="#A6E6FD" d="m732.944,148.172c0,-0.012 0.001,-0.023 0.001,-0.035c0,-21.332 -17.293,-38.625 -38.625,-38.625s-38.625,17.293 -38.625,38.625c0,0.012 0.001,0.023 0.001,0.035c-19.467,0.727 -35.168,16.865 -35.168,36.502l0,0c0,20.095 16.442,36.537 36.537,36.537l74.511,0c20.095,0 36.537,-16.442 36.537,-36.537l0,0c0,-19.637 -15.702,-35.775 -35.169,-36.502z"/>
  <path id="svg_2" fill="#8DD0E2" d="m768.108,184.67c0,20.104 -16.441,36.545 -36.535,36.545l-74.504,0c-10.047,0 -19.191,-4.115 -25.815,-10.73c-6.092,-6.102 -10.067,-14.353 -10.649,-23.466c6.223,4.888 14.042,7.819 22.523,7.819l74.515,0c20.094,0 36.535,-16.441 36.535,-36.535c0,-0.793 -0.03,-1.576 -0.08,-2.349c1.315,1.044 2.569,2.168 3.734,3.372c6.351,6.585 10.276,15.527 10.276,25.344z"/>
  <path stroke="null" id="svg_13" d="m744.985,141.415c-3.265,-22.273 -22.499,-39.431 -45.665,-39.431s-42.4,17.158 -45.665,39.431c-20.462,3.914 -35.655,21.767 -35.655,43.259c0,24.298 19.767,44.065 44.065,44.065l74.511,0c24.298,0 44.065,-19.767 44.065,-44.065c-0.001,-21.492 -15.194,-39.345 -35.656,-43.259zm-8.409,72.268l-74.511,0c-15.996,0 -29.009,-13.013 -29.009,-29.009c0,-15.404 12.526,-28.404 27.921,-28.98c4.046,-0.151 7.247,-3.474 7.247,-7.522c0,-0.036 0,-0.074 -0.001,-0.112c0.043,-17.111 13.976,-31.02 31.098,-31.02c17.121,0 31.055,13.909 31.097,31.02c0,0.038 -0.001,0.076 -0.001,0.112c0,4.048 3.201,7.371 7.247,7.522c15.396,0.575 27.921,13.575 27.921,28.98c0,15.996 -13.013,29.009 -29.009,29.009z"/>

  <circle id="svg_3" fill="#F9D53D" r="100.330002" cy="213.07" cx="256.44"/>
  <path id="svg_4" fill="#EAC321" d="m356.777,213.077c0,55.404 -44.926,100.33 -100.33,100.33c-34.357,0 -64.678,-17.264 -82.755,-43.591c14.152,7.638 30.342,11.964 47.535,11.964c55.414,0 100.33,-44.916 100.33,-100.33c0,-21.078 -6.494,-40.62 -17.595,-56.759c31.447,16.933 52.815,50.165 52.815,88.386z"/>
  <path id="svg_5" fill="#A6E6FD" d="m451.412,239.203c0,-0.018 0.001,-0.036 0.001,-0.054c0,-32.791 -26.582,-59.373 -59.373,-59.373s-59.373,26.582 -59.373,59.373c0,0.018 0.001,0.036 0.001,0.054c-29.924,1.118 -54.06,25.925 -54.06,56.11l0,0c0,30.89 25.274,56.164 56.164,56.164l114.536,0c30.89,0 56.163,-25.274 56.163,-56.164l0,0c0.001,-30.185 -24.135,-54.992 -54.059,-56.11z"/>
  <path id="svg_6" fill="#8DD0E2" d="m505.476,295.31c0,30.894 -25.273,56.167 -56.167,56.167l-114.533,0c-15.447,0 -29.489,-6.313 -39.666,-16.501c-6.203,-6.193 -10.97,-13.821 -13.74,-22.332c9.103,6.383 20.164,10.137 32.068,10.137l114.542,0c30.884,0 56.157,-25.273 56.157,-56.167c0,-6.042 -0.964,-11.874 -2.75,-17.334c2.981,2.098 5.761,4.466 8.28,7.076c9.776,10.118 15.809,23.869 15.809,38.954z"/>
  <path id="svg_7" d="m256.445,74.697c4.158,0 7.528,-3.37 7.528,-7.528l0,-31.382c0,-4.157 -3.37,-7.528 -7.528,-7.528c-4.157,0 -7.528,3.37 -7.528,7.528l0,31.383c0,4.157 3.37,7.527 7.528,7.527z"/>
  <path id="svg_9" d="m147.952,115.227c1.47,1.47 3.396,2.205 5.323,2.205c1.926,0 3.853,-0.735 5.323,-2.205c2.94,-2.94 2.94,-7.706 0,-10.646l-22.191,-22.191c-2.939,-2.939 -7.706,-2.939 -10.646,0c-2.94,2.94 -2.94,7.706 0,10.646l22.191,22.191z"/>
  <path id="svg_10" d="m79.158,220.602l31.383,0c4.157,0 7.528,-3.37 7.528,-7.528c0,-4.157 -3.37,-7.528 -7.528,-7.528l-31.383,0c-4.157,0 -7.528,3.37 -7.528,7.528c0,4.157 3.37,7.528 7.528,7.528z"/>
  <path id="svg_11" d="m131.084,345.962c1.926,0 3.853,-0.735 5.323,-2.205l22.191,-22.191c2.94,-2.94 2.94,-7.706 0,-10.646c-2.939,-2.939 -7.706,-2.939 -10.646,0l-22.191,22.191c-2.94,2.94 -2.94,7.706 0,10.646c1.47,1.47 3.396,2.205 5.323,2.205z"/>
  <path id="svg_12" d="m359.614,117.432c1.926,0 3.853,-0.735 5.323,-2.205l22.191,-22.191c2.939,-2.939 2.939,-7.706 0,-10.646c-2.94,-2.94 -7.705,-2.94 -10.647,0l-22.191,22.191c-2.94,2.94 -2.94,7.706 0,10.646c1.471,1.47 3.397,2.205 5.324,2.205z"/>
  <path id="svg_14" d="m495.077,251.127c-9.897,-10.241 -22.656,-16.781 -36.482,-18.813c-3.434,-33.69 -31.972,-60.066 -66.554,-60.066c-11.869,0 -23.026,3.108 -32.701,8.552c-13.753,-43.751 -54.663,-75.585 -102.895,-75.585c-32.341,0 -62.697,14.33 -83.283,39.315c-2.644,3.209 -2.185,7.953 1.023,10.597c3.209,2.644 7.954,2.186 10.597,-1.023c17.716,-21.502 43.836,-33.833 71.663,-33.833c43.313,0 79.775,29.833 89.957,70.025c-11.505,10.755 -19.232,25.503 -20.915,42.019c-13.826,2.032 -26.586,8.572 -36.483,18.813c-11.557,11.96 -17.923,27.652 -17.923,44.186c0,3.155 0.239,6.254 0.684,9.287c-4.986,0.834 -10.101,1.279 -15.32,1.279c-51.172,0 -92.804,-41.632 -92.804,-92.804c0,-7.635 0.928,-15.224 2.759,-22.555c1.007,-4.034 -1.447,-8.12 -5.48,-9.127c-4.036,-1.007 -8.121,1.447 -9.128,5.48c-2.128,8.523 -3.207,17.339 -3.207,26.202c0,59.474 48.386,107.859 107.86,107.859c6.587,0 13.034,-0.605 19.298,-1.742c9.468,23.319 32.352,39.812 59.029,39.812l33.306,0c4.158,0 7.528,-3.37 7.528,-7.528c0,-4.158 -3.37,-7.528 -7.528,-7.528l-33.306,0c-26.818,0 -48.635,-21.818 -48.635,-48.636c0,-25.827 21,-47.623 46.813,-48.588c4.045,-0.151 7.246,-3.474 7.246,-7.522c0,-0.034 0,-0.076 -0.001,-0.117c0.034,-28.559 23.279,-51.783 51.845,-51.783s51.811,23.223 51.845,51.782c-0.001,0.042 -0.001,0.083 -0.001,0.118c0,4.048 3.201,7.371 7.246,7.522c25.813,0.964 46.813,22.761 46.813,48.588c0,26.818 -21.818,48.636 -48.636,48.636l-35.729,0c-4.158,0 -7.528,3.37 -7.528,7.528c0,4.157 3.37,7.528 7.528,7.528l35.729,0c35.12,0 63.692,-28.572 63.692,-63.691c0.001,-16.535 -6.364,-32.227 -17.922,-44.187z"/>
  <path id="svg_15" fill="#A6E6FD" d="m120.944,405.172c0,-0.012 0.001,-0.023 0.001,-0.035c0,-21.332 -17.293,-38.625 -38.625,-38.625s-38.625,17.293 -38.625,38.625c0,0.012 0.001,0.023 0.001,0.035c-19.467,0.727 -35.168,16.865 -35.168,36.502l0,0c0,20.095 16.442,36.537 36.537,36.537l74.511,0c20.095,0 36.537,-16.442 36.537,-36.537l0,0c0,-19.637 -15.702,-35.775 -35.169,-36.502z"/>
  <path id="svg_16" fill="#8DD0E2" d="m156.108,441.67c0,20.104 -16.441,36.545 -36.535,36.545l-74.504,0c-10.047,0 -19.191,-4.115 -25.815,-10.73c-6.092,-6.102 -10.067,-14.353 -10.649,-23.466c6.223,4.888 14.042,7.819 22.523,7.819l74.515,0c20.094,0 36.535,-16.441 36.535,-36.535c0,-0.793 -0.03,-1.576 -0.08,-2.349c1.315,1.044 2.569,2.168 3.734,3.372c6.351,6.585 10.276,15.527 10.276,25.344z"/>
  <path id="svg_17" d="m127.985,398.415c-3.265,-22.273 -22.499,-39.431 -45.665,-39.431s-42.4,17.158 -45.665,39.431c-20.462,3.914 -35.655,21.767 -35.655,43.259c0,24.298 19.767,44.065 44.065,44.065l74.511,0c24.298,0 44.065,-19.767 44.065,-44.065c-0.001,-21.492 -15.194,-39.345 -35.656,-43.259zm-8.409,72.268l-74.511,0c-15.996,0 -29.009,-13.013 -29.009,-29.009c0,-15.404 12.526,-28.404 27.921,-28.98c4.046,-0.151 7.247,-3.474 7.247,-7.522c0,-0.036 0,-0.074 -0.001,-0.112c0.043,-17.111 13.976,-31.02 31.098,-31.02c17.121,0 31.055,13.909 31.097,31.02c0,0.038 -0.001,0.076 -0.001,0.112c0,4.048 3.201,7.371 7.247,7.522c15.396,0.575 27.921,13.575 27.921,28.98c0,15.996 -13.013,29.009 -29.009,29.009z"/>
 </g>
</svg>
