<svg width="642" height="482" xmlns="http://www.w3.org/2000/svg">

 <g>
  <title>background</title>
  <rect fill="none" id="canvas_background" height="484" width="644" y="-1" x="-1"/>
 </g>
 <g>
  <title>Layer 1</title>
  <g stroke="null" id="svg_1">
   <path stroke="null" id="svg_2" fill="#A30B37" d="m441.393877,77.639976c44.055779,26.604576 91.526734,53.43272 123.857072,97.587374c32.444178,44.266438 49.74774,105.971169 27.207574,149.119767c-22.426327,43.148598 -84.81022,67.741064 -137.517779,94.90456c-52.707559,27.163496 -95.738785,56.898022 -140.477599,59.133701c-44.738814,2.235679 -91.071377,-22.915706 -138.77001,-51.755961c-47.584794,-28.728471 -96.42182,-61.034028 -118.165111,-106.753657c-21.743291,-45.719629 -16.392848,-104.741546 1.593749,-160.074593c17.986597,-55.221263 48.495508,-106.753657 93.462,-133.022881c44.966492,-26.269224 104.276726,-27.387064 154.252144,-14.643695c49.975418,12.631585 90.502181,39.012593 134.557959,65.505385z"/>
  </g>
 </g>
</svg>