<?xml version="1.0"?>
<svg xmlns="http://www.w3.org/2000/svg" height="512px" viewBox="-51 0 512 512.00428" width="512px"><g><path d="m328.597656 317.902344-63.042968-5.488282c-3.738282-11.464843-6.382813-23.261718-7.894532-35.226562 10.105469-9.953125 18.289063-21.679688 24.148438-34.589844 3.285156-7.058594 6.007812-14.363281 8.148437-21.847656 11.460938-2.816406 34.316407-13.140625 34.316407-50.675781 0-5.460938-.058594-20.4375-8.105469-28.480469.738281-9.3125.511719-18.671875-.683594-27.9375 23.191406-10.847656 36.867187-35.289062 33.984375-60.730469-2.882812-25.4375-21.679688-46.199219-46.710938-51.585937-25.027343-5.386719-50.703124 5.804687-63.796874 27.804687-11.222657-2.402343-22.675782-3.585937-34.152344-3.539062-39.125 0-68.726563 11.382812-87.980469 33.828125-25.324219 29.527344-24.527344 68.714844-23.375 82.160156-8.054687 8.042969-8.113281 23.019531-8.113281 28.480469 0 37.410156 22.710937 47.792969 34.210937 50.648437 2.113281 7.480469 4.8125 14.785156 8.074219 21.84375 5.855469 12.996094 14.085938 24.78125 24.269531 34.753906-1.46875 11.921876-4.089843 23.675782-7.828125 35.09375l-63.042968 5.488282c-46.8125 4.039062-82.34375 43.90625-80.9843755 90.871094 1.3593755 46.96875 39.1367185 84.714843 86.1054685 86.035156 11.144531 11.023437 26.1875 17.199218 41.863281 17.195312h153.597657c15.675781.003906 30.71875-6.171875 41.867187-17.195312 46.960938-1.324219 84.730469-39.066406 86.09375-86.03125 1.359375-46.960938-34.160156-86.828125-80.96875-90.875zm-189.558594 20.933594c17.828126 16.976562 41.179688 26.953124 65.769532 28.101562 24.585937-1.148438 47.9375-11.125 65.765625-28.101562 2.25-2.285157 3.007812-5.652344 1.960937-8.683594l21.1875 1.84375c-8.527344 20.78125-30.941406 52.007812-88.914062 52.007812-57.976563 0-80.390625-31.230468-88.917969-52.007812l21.183594-1.84375c-1.046875 3.03125-.285157 6.398437 1.964843 8.683594zm155.769532-138.519532c2.34375-14.738281 3.578125-29.632812 3.6875-44.554687 1.621094-1.242188 3.5625-2.007813 5.59375-2.203125.035156.019531 3.117187 2.660156 3.117187 16.515625 0 16.976562-5.855469 25.738281-12.398437 30.242187zm-4.667969-183.246094c19.1875-.046874 36.035156 12.753907 41.136719 31.25 5.097656 18.5-2.808594 38.121094-19.308594 47.917969-3.621094-13.527343-10.167969-26.089843-19.179688-36.804687-9.871093-11.394532-22.460937-20.113282-36.597656-25.351563 8.027344-10.675781 20.59375-16.972656 33.949219-17.011719zm-160.285156 53.382813c15.875-18.4375 41.09375-27.78125 74.953125-27.78125 33.855468 0 59.074218 9.34375 74.949218 27.78125 19.363282 22.488281 20.246094 53.238281 19.578126 66.621094-1.417969.320312-2.804688.753906-4.152344 1.292969-1.433594-1.148438-3.207032-1.792969-5.042969-1.828126-.542969 0-54.726563-.535156-77.699219-46.484374-.183594-.269532-.382812-.523438-.597656-.769532-.597656-.996094-1.433594-1.832031-2.425781-2.429687-.25-.222657-.515625-.425781-.789063-.617188-.1875-.09375-.390625-.078125-.582031-.15625-2.085937-.78125-4.386719-.78125-6.472656 0-.191407.078125-.394531.0625-.578125.15625-.277344.191407-.539063.394531-.789063.617188-.996093.597656-1.828125 1.433593-2.425781 2.429687-.214844.246094-.414062.5-.597656.769532-22.867188 45.714843-75.5 46.472656-77.726563 46.484374-.792969.042969-1.574219.203126-2.324219.472657-.332031.046875-.660156.113281-.984374.199219-.621094.3125-1.199219.703124-1.722657 1.160156-1.347656-.539063-2.734375-.972656-4.148437-1.296875-.667969-13.378907.214844-44.132813 19.578125-66.621094zm-27.449219 99.621094c0-13.839844 3.074219-16.488281 3.050781-16.488281 2.058594.136718 4.03125.890624 5.65625 2.164062.113281 14.910156 1.324219 29.789062 3.621094 44.523438-6.511719-4.515626-12.328125-13.285157-12.328125-30.199219zm40.652344 65.199219c-3.714844-7.90625-6.644532-16.160157-8.75-24.636719-4.316406-18.902344-6.390625-38.242188-6.183594-57.628907 30.449219-2.792968 58.300781-18.328124 76.683594-42.765624 18.378906 24.4375 46.230468 39.972656 76.679687 42.765624.195313 19.390626-1.910156 38.734376-6.273437 57.628907-2.128906 8.484375-5.089844 16.742187-8.832032 24.648437-14.542968 30.734375-35.257812 46.320313-61.574218 46.320313-26.527344 0-47.292969-15.578125-61.75-46.332031zm61.75 63.398437c13.09375.054687 25.964844-3.371094 37.300781-9.925781 1.925781 11.683594 4.945313 23.160156 9.015625 34.28125l.023438.058594.09375.28125c.964843 2.636718 1.90625 5.027343 2.855468 7.253906-13.867187 11.660156-31.191406 18.425781-49.289062 19.25-18.09375-.871094-35.402344-7.640625-49.285156-19.273438.9375-2.203125 1.878906-4.558594 2.816406-7.140625.042968-.117187.078125-.246093.121094-.363281l.027343-.078125c4.085938-11.074219 7.097657-22.515625 9.003907-34.164063 11.359374 6.496094 24.230468 9.882813 37.316406 9.820313zm-9.472656 196.265625c3.660156-3.597656 6.839843-7.652344 9.472656-12.058594 2.628906 4.40625 5.8125 8.460938 9.476562 12.058594zm140.984374-18.773438c3.3125-7.53125 5.019532-15.667968 5.019532-23.894531v-42.664062c0-4.714844-3.820313-8.535157-8.53125-8.535157-4.714844 0-8.535156 3.820313-8.535156 8.535157v42.664062c-.027344 23.554688-19.113282 42.640625-42.667969 42.667969h-25.597657c-23.554687-.027344-42.640624-19.113281-42.667968-42.667969v-8.53125c0-4.714843-3.820313-8.535156-8.53125-8.535156-4.714844 0-8.535156 3.820313-8.535156 8.535156v8.53125c-.027344 23.554688-19.113282 42.640625-42.667969 42.667969h-25.597657c-23.554687-.027344-42.640624-19.113281-42.667968-42.667969v-42.664062c0-4.714844-3.820313-8.535157-8.53125-8.535157-4.714844 0-8.535156 3.820313-8.535156 8.535157v42.664062c0 8.226563 1.710937 16.363281 5.023437 23.894531-34.539063-7.605468-58.347656-39.289062-56.050781-74.582031 2.300781-35.289062 30.019531-63.617187 65.253906-66.675781l15.714844-1.367188c8.582031 24.621094 33.945312 67.53125 106.59375 67.53125 72.648437 0 98.007812-42.910156 106.589844-67.535156l15.707031 1.367188c35.246093 3.046875 62.980469 31.375 65.28125 66.675781 2.300781 35.296875-21.519531 66.988281-56.070313 74.585937zm0 0" data-original="#000000" class="active-path" data-old_color="#000000" fill="#FCF7F8"/></g> </svg>
